<svg data-component="svg" class="map__svg" viewBox="0 0 10240 7680" style="background-image: url(&quot;https://mapsapi.tmol.io/maps/geometry/image/78/86/788646?removeFilters=ISM_Shadow&amp;avertaFonts=true&amp;app=PRD2663_EDP_NA&quot;); transform: rotate(0deg);"><g class="seats"></g><g class="polygons"><path data-component="svg__section" data-section-id="s_130" data-section-name="328" class="block is-available is-filtered minimum" d="M8686.36,4446.6C8662.34,4580.12,8628.9,4735.64,8582.75,4901.36C8582.75,4901.36,9171.42,5075.79,9171.42,5075.79C9223.53,4909.73,9267.3,4736.07,9298.64,4556.8L9298.64,4556.8C9298.64,4556.8,8992.5,4501.7,8686.36,4446.6Z"></path><path data-component="svg__section" data-section-id="s_131" data-section-name="329" class="block is-available is-filtered minimum" d="M8447.4,5308.29C8718.51,5434.26,8989.61,5560.22,8989.61,5560.22C9055.95,5408.18,9117.99,5245.96,9171.37,5075.77C9171.37,5075.77,8582.7,4901.35,8582.7,4901.35L8582.7,4901.35C8546.15,5032.56,8501.61,5170.14,8447.4,5308.29Z"></path><path data-component="svg__section" data-section-id="s_132" data-section-name="330" class="block is-available is-filtered minimum" d="M8262.85,5703.12C8507.22,5871.46,8751.59,6039.81,8751.59,6039.81C8832.03,5895.47,8913.62,5734.58,8989.67,5560.28C8989.67,5560.28,8447.46,5308.35,8447.46,5308.35L8447.46,5308.35C8395.33,5441.18,8334.31,5574.49,8262.85,5703.12Z"></path><path data-component="svg__section" data-section-id="s_133" data-section-name="331" class="block is-available is-filtered minimum" d="M8025.45,6057.76C8257.97,6261.22,8490.5,6464.68,8490.5,6464.68C8569.28,6348.03,8659.65,6204.71,8751.57,6039.79C8751.57,6039.79,8262.83,5703.1,8262.83,5703.1L8262.83,5703.1C8193.86,5827.24,8115.19,5947.05,8025.45,6057.76Z"></path><path data-component="svg__section" data-section-id="s_134" data-section-name="344" class="block is-available is-filtered minimum" d="M2578.44,6098.3C2461.27,6495.81,2344.1,6893.32,2344.1,6893.32C2441.55,6924.45,2565.43,6961.8,2711.52,7001.26C2711.52,7001.26,2915.05,6241.35,2915.05,6241.35L2915.05,6241.35C2798.22,6199.35,2685.17,6151.91,2578.44,6098.3Z"></path><path data-component="svg__section" data-section-id="s_135" data-section-name="349" class="block is-available is-filtered minimum" d="M1696.04,4886.71C1696.04,4886.71,1641.31,4719.46,1595.22,4442.25C1595.22,4442.25,1016.4,4533.75,1016.4,4533.75C1043.87,4683.58,1083.86,4858.95,1142.01,5051.83C1142.01,5051.83,1696.95,4890.6,1696.95,4890.6L1696.95,4890.6C1696.66,4889.29,1696.34,4888.01,1696.04,4886.71Z"></path><path data-component="svg__section" data-section-id="s_136" data-section-name="347" class="block is-available is-filtered minimum" d="M1833.92,5313.4C1574.56,5423.74,1315.2,5534.09,1315.2,5534.09C1377.56,5683.03,1450.65,5837.27,1536.55,5994.24C1536.55,5994.24,2046.66,5715.2,2046.66,5715.2L2046.66,5715.2C1975.65,5605.68,1900.53,5471.21,1833.92,5313.4Z"></path><path data-component="svg__section" data-section-id="s_137" data-section-name="350" class="block is-available is-filtered minimum" d="M1544.11,4007.17C1544.11,4007.17,1543.94,4005.5,1543.68,4002.4C1543.68,4002.4,956.05,4006.67,956.05,4006.67C956.549,4039.22,961.813,4235.98,1016.41,4533.74C1016.41,4533.74,1595.24,4442.25,1595.24,4442.25L1595.24,4442.25C1574.52,4317.68,1555.57,4170.97,1544.11,4007.17Z"></path><path data-component="svg__section" data-section-id="s_138" data-section-name="348" class="block is-available is-filtered minimum" d="M1696.94,4890.6C1419.47,4971.22,1142.0,5051.83,1142.0,5051.83C1187.61,5203.13,1244.49,5365.18,1315.21,5534.11C1315.21,5534.11,1833.93,5313.42,1833.93,5313.42L1833.93,5313.42C1780.64,5187.16,1732.81,5045.97,1696.94,4890.6Z"></path><path data-component="svg__section" data-section-id="s_139" data-section-name="302" class="block is-available is-filtered minimum" d="M1592.36,3196.33C1308.19,3153.72,1024.02,3111.1,1024.02,3111.1C993.029,3278.95,971.077,3453.82,960.65,3634.69C960.65,3634.69,1540.99,3654.29,1540.99,3654.29L1540.99,3654.29C1547.2,3526.38,1561.76,3370.12,1592.36,3196.33Z"></path><path data-component="svg__section" data-section-id="s_70" data-section-name="114" class="block is-available is-filtered minimum" d="M5336.58,2097.6C5331.79,2288.99,5326.99,2480.39,5322.2,2671.78L5322.2,2671.78L5343.87,2698.28C5343.49,2712.31,5343.11,2726.34,5342.72,2740.37C5401.67,2743.16,5469.09,2747.89,5526.63,2752.93C5526.63,2752.93,5528.87,2665.13,5531.1,2577.33L5531.1,2577.33L5570.68,2134.09C5569.58,2135.65,5568.48,2137.21,5568.48,2137.21L5568.48,2137.21C5498.62,2116.6,5418.75,2104.28,5336.58,2097.6Z"></path><path data-component="svg__section" data-section-id="s_72" data-section-name="123" class="block is-available is-filtered minimum" d="M6556.55,3106.91C6556.55,3106.91,6593.06,3156.86,6647.04,3388.26C6647.04,3388.26,7741.36,3057.24,7741.36,3057.24C7689.56,2877.66,7625.32,2718.7,7559.54,2582.8C7555.04,2576.06,7550.54,2569.42,7546.05,2562.85L7546.05,2562.85C7546.05,2562.85,6556.55,3106.91,6556.55,3106.91Z"></path><path data-component="svg__section" data-section-id="s_71" data-section-name="118" class="block is-available is-filtered middle" d="M6507.41,3068.99C6749.08,2666.83,6990.74,2264.67,6990.74,2264.67C6854.16,2200.78,6707.0,2148.64,6564.42,2107.45C6564.42,2107.45,6361.7,3000.43,6361.7,3000.43L6361.7,3000.43C6430.01,3025.58,6476.71,3049.76,6507.41,3068.99Z"></path><path data-component="svg__section" data-section-id="s_78" data-section-name="144" class="block is-available is-filtered middle" d="M3772.88,4598.9C3495.24,4958.7,3217.6,5318.51,3217.6,5318.51C3284.79,5354.8,3430.6,5429.36,3629.4,5498.25C3629.4,5498.25,3898.1,4680.85,3898.1,4680.85L3898.1,4680.85C3846.09,4656.25,3803.01,4628.55,3772.88,4598.9Z"></path><path data-component="svg__section" data-section-id="s_77" data-section-name="115A" class="block is-available is-filtered middle" d="M5789.65,1956.35C5737.88,2372.54,5686.1,2788.73,5686.1,2788.73C5718.74,2793.3,5743.76,2796.31,5763.01,2798.19C5763.01,2798.19,5755.46,2878.64,5755.46,2878.64C5784.94,2881.54,5813.39,2884.63,5840.83,2887.89C5840.83,2887.89,5972.27,1979.82,5972.27,1979.82L5972.27,1979.82C5879.2,1965.83,5813.5,1958.74,5789.65,1956.35Z"></path><path data-component="svg__section" data-section-id="s_79" data-section-name="131" class="block is-available is-filtered minimum" d="M6526.6,4644.82C6771.13,4990.37,7015.66,5335.92,7015.66,5335.92C7036.63,5323.11,7057.33,5309.8,7077.65,5295.88C7077.65,5295.88,7304.95,5440.8,7304.95,5440.8C7391.78,5344.06,7518.66,5188.69,7611.35,5036.15C7611.97,5034.69,6572.4,4589.85,6572.4,4589.85L6572.4,4589.85C6570.11,4598.48,6561.63,4618.57,6526.6,4644.82Z"></path><path data-component="svg__section" data-section-id="s_74" data-section-name="121" class="block is-available is-filtered minimum" d="M6556.57,3106.87C7051.35,2834.87,7546.12,2562.87,7546.12,2562.87C7396.29,2343.64,7264.77,2222.78,7191.07,2165.55C7191.07,2165.55,7044.13,2290.45,7044.13,2290.45C7026.54,2281.62,7008.75,2273.01,6990.78,2264.6C6990.78,2264.6,6507.45,3068.93,6507.45,3068.93L6507.45,3068.93C6536.09,3086.87,6550.53,3100.7,6556.57,3106.87Z"></path><path data-component="svg__section" data-section-id="s_73" data-section-name="117" class="block is-available is-filtered minimum" d="M6361.64,3000.43C6463.0,2553.98,6564.36,2107.53,6564.36,2107.53C6450.38,2074.53,6339.08,2048.13,6237.79,2027.2C6237.79,2027.2,6065.85,2922.09,6065.85,2922.09L6065.85,2922.09C6193.41,2946.23,6289.67,2973.88,6361.64,3000.43Z"></path><path data-component="svg__section" data-section-id="s_76" data-section-name="115C" class="block is-available is-filtered minimum" d="M5779.67,1955.3C5751.19,1984.49,5722.71,2013.68,5694.23,2042.86L5694.23,2042.86L5635.14,2042.86L5570.68,2133.98L5531.1,2577.22C5528.7,2673.95,5526.3,2770.68,5526.3,2770.68C5584.34,2775.76,5629.66,2781.5,5686.08,2788.78C5686.08,2788.78,5789.63,1956.27,5789.63,1956.27L5789.63,1956.27C5783.16,1955.62,5779.67,1955.3,5779.67,1955.3Z"></path><path data-component="svg__section" data-section-id="s_75" data-section-name="116" class="block is-available is-filtered middle" d="M6065.8,2922.07C6151.77,2474.63,6237.75,2027.18,6237.75,2027.18C6136.89,2006.34,6046.03,1990.93,5972.27,1979.85C5972.27,1979.85,5840.75,2887.92,5840.75,2887.92L5840.75,2887.92C5924.9,2897.92,5999.55,2909.53,6065.8,2922.07Z"></path><path data-component="svg__section" data-section-id="s_140" data-section-name="301" class="block is-available is-filtered minimum" d="M1541.03,3654.29C1250.86,3644.5,960.69,3634.7,960.69,3634.7C953.789,3754.54,951.811,3876.93,955.946,4001.81C955.946,4001.81,955.956,4003.53,956.006,4006.7C956.006,4006.7,1543.64,4002.43,1543.64,4002.43L1543.64,4002.43C1541.41,3976.86,1531.62,3848.21,1541.03,3654.29Z"></path><path data-component="svg__section" data-section-id="s_141" data-section-name="341" class="block is-available is-filtered minimum" d="M3787.1,6459.55C3725.85,6832.93,3664.6,7206.31,3664.6,7206.31C3826.37,7232.44,3996.66,7255.57,4173.69,7273.74C4173.69,7273.74,4234.09,6519.17,4234.09,6519.17L4234.09,6519.17C4092.77,6504.55,3941.94,6485.17,3787.1,6459.55Z"></path><path data-component="svg__section" data-section-id="s_142" data-section-name="346" class="block is-available is-filtered minimum" d="M2046.61,5715.2C1791.56,5854.72,1536.5,5994.24,1536.5,5994.24C1621.01,6148.67,1717.99,6305.69,1828.9,6462.76C1828.9,6462.76,2322.0,6061.02,2322.0,6061.02L2322.0,6061.02C2322.0,6061.01,2193.11,5941.13,2046.61,5715.2Z"></path><path data-component="svg__section" data-section-id="s_143" data-section-name="343" class="block is-available is-filtered minimum" d="M2915.03,6241.35C2813.27,6621.31,2711.5,7001.27,2711.5,7001.27C2848.35,7038.22,3004.73,7077.0,3176.94,7114.25C3176.94,7114.25,3344.86,6369.62,3344.86,6369.62L3344.86,6369.62C3199.13,6333.82,3054.4,6291.44,2915.03,6241.35Z"></path><path data-component="svg__section" data-section-id="s_144" data-section-name="342" class="block is-available is-filtered minimum" d="M3344.83,6369.65C3260.86,6741.96,3176.9,7114.28,3176.9,7114.28C3327.99,7146.95,3491.34,7178.39,3664.55,7206.38C3664.55,7206.38,3787.05,6459.62,3787.05,6459.62L3787.05,6459.62C3641.65,6435.54,3492.73,6405.97,3344.83,6369.65Z"></path><path data-component="svg__section" data-section-id="s_145" data-section-name="303" class="block is-available is-filtered minimum" d="M1696.27,2764.93C1422.8,2683.42,1149.34,2601.9,1149.34,2601.9C1099.73,2763.07,1056.86,2933.15,1024.0,3111.09C1024.0,3111.09,1592.34,3196.33,1592.34,3196.33L1592.34,3196.33C1616.1,3061.39,1649.56,2915.89,1696.27,2764.93Z"></path><path data-component="svg__section" data-section-id="s_146" data-section-name="345" class="block is-available is-filtered minimum" d="M2396.83,5997.05C2371.9,6018.38,2346.98,6039.7,2322.05,6061.03L2322.05,6061.03C2075.5,6261.9,1828.95,6462.77,1828.95,6462.77C1910.57,6578.34,1999.61,6693.94,2097.2,6808.54C2097.2,6808.54,2185.69,6842.72,2344.08,6893.33C2344.08,6893.33,2578.42,6098.31,2578.42,6098.31L2578.42,6098.31C2515.53,6066.74,2454.8,6033.04,2396.83,5997.05Z"></path><path data-component="svg__section" data-section-id="s_61" data-section-name="104" class="block is-available is-filtered minimum" d="M3760.81,3077.1C3244.48,2791.15,2728.15,2505.2,2728.15,2505.2C2708.58,2534.15,2688.56,2564.86,2668.07,2597.69C2614.83,2726.46,2572.73,2856.62,2539.4,2981.51C2539.4,2981.51,3656.34,3330.25,3656.34,3330.25L3656.34,3330.25C3679.34,3223.11,3712.69,3125.29,3760.81,3077.1Z"></path><path data-component="svg__section" data-section-id="s_60" data-section-name="203B" class="block is-available is-filtered minimum" d="M2119.99,2875.08C1910.26,2813.27,1700.54,2751.45,1700.54,2751.45C1655.12,2896.13,1621.9,3035.96,1597.8,3166.47C1597.8,3166.47,2023.07,3226.94,2023.07,3226.94L2023.07,3226.94C2063.8,2997.22,2119.99,2875.08,2119.99,2875.08Z"></path><path data-component="svg__section" data-section-id="s_67" data-section-name="109" class="block is-available is-filtered minimum" d="M4219.75,2911.41C4129.87,2471.43,4040.0,2031.45,4040.0,2031.45C3924.74,2054.5,3817.5,2080.84,3721.65,2107.33C3721.65,2107.33,3937.46,2986.9,3937.46,2986.9L3937.46,2986.9C4004.46,2963.25,4096.07,2936.93,4219.75,2911.41Z"></path><path data-component="svg__section" data-section-id="s_66" data-section-name="113" class="block is-available is-filtered minimum" d="M5160.88,2090.95C5084.52,2090.95,5010.96,2094.26,4946.52,2098.71C4946.52,2098.71,4957.51,2386.91,4968.5,2675.12L4968.5,2675.12L4941.05,2695.08C4941.46,2709.79,4941.87,2724.51,4942.28,2739.22C5004.01,2736.66,5066.45,2735.35,5129.5,2735.35C5201.42,2735.35,5272.55,2737.05,5342.75,2740.37C5342.75,2740.37,5343.32,2719.33,5343.9,2698.28L5343.9,2698.28L5322.23,2671.78C5329.42,2384.69,5336.61,2097.6,5336.61,2097.6L5336.61,2097.6C5278.27,2092.85,5218.77,2090.95,5160.88,2090.95Z"></path><path data-component="svg__section" data-section-id="s_69" data-section-name="111A" class="block is-available is-filtered middle" d="M4604.22,2850.79C4552.78,2408.82,4501.35,1966.85,4501.35,1966.85C4434.47,1971.95,4368.6,1978.93,4304.2,1987.44C4304.2,1987.44,4442.26,2872.35,4442.26,2872.35L4442.26,2872.35C4492.58,2864.87,4546.49,2857.64,4604.22,2850.79Z"></path><path data-component="svg__section" data-section-id="s_68" data-section-name="110" class="block is-available is-filtered middle" d="M4442.31,2872.31C4373.28,2429.85,4304.24,1987.4,4304.24,1987.4C4212.76,1999.48,4124.24,2014.56,4040.0,2031.41C4040.0,2031.41,4219.75,2911.37,4219.75,2911.37L4219.75,2911.37C4284.71,2897.97,4358.51,2884.78,4442.31,2872.31Z"></path><path data-component="svg__section" data-section-id="s_63" data-section-name="112" class="block is-available is-filtered minimum" d="M4946.58,2098.7C4826.96,2106.96,4738.9,2119.16,4722.8,2121.47C4722.8,2121.47,4735.4,2356.65,4748.01,2591.83L4748.01,2591.83L4740.51,2718.42C4743.5,2735.06,4746.5,2751.7,4746.5,2751.7C4810.88,2746.14,4876.19,2741.96,4942.32,2739.22C4941.91,2724.51,4941.5,2709.8,4941.09,2695.09L4941.09,2695.09L4968.56,2675.11C4961.23,2482.97,4953.9,2290.84,4946.58,2098.7Z"></path><path data-component="svg__section" data-section-id="s_62" data-section-name="111C" class="block is-available is-filtered minimum" d="M4520.39,1965.4C4514.02,1965.85,4507.69,1966.35,4501.35,1966.84C4501.35,1966.84,4594.54,2767.57,4594.54,2767.57C4644.54,2761.43,4695.2,2756.13,4746.45,2751.7C4746.45,2751.7,4743.45,2735.05,4740.46,2718.4L4740.46,2718.4L4747.96,2591.83C4735.35,2356.65,4722.75,2121.47,4722.75,2121.47C4721.0,2121.72,4720.02,2121.87,4720.02,2121.87C4720.02,2121.87,4693.63,2082.42,4667.23,2042.97L4667.23,2042.97L4618.96,2042.97C4586.1,2017.11,4553.24,1991.26,4520.39,1965.4Z"></path><path data-component="svg__section" data-section-id="s_65" data-section-name="108" class="block is-available is-filtered middle" d="M3937.46,2986.89C3829.56,2547.05,3721.66,2107.2,3721.66,2107.2C3544.99,2155.91,3406.89,2205.79,3328.6,2235.65C3328.6,2235.65,3798.77,3048.63,3798.77,3048.63L3798.77,3048.63C3823.87,3033.64,3867.06,3011.71,3937.46,2986.89Z"></path><path data-component="svg__section" data-section-id="s_64" data-section-name="106" class="block is-available is-filtered minimum" d="M3768.88,3069.5C3768.88,3069.5,3776.95,3061.58,3798.74,3048.56C3798.74,3048.56,3328.57,2235.67,3328.57,2235.67C3282.14,2253.37,3256.64,2264.32,3256.64,2264.32C3256.64,2264.32,3087.34,2107.25,3087.34,2107.25C3018.09,2154.82,2890.73,2265.05,2728.15,2505.16C2728.15,2505.16,3760.79,3077.16,3760.79,3077.16L3760.79,3077.16C3763.48,3074.47,3766.09,3071.88,3768.88,3069.5Z"></path><path data-component="svg__section" data-section-id="s_19" data-section-name="218" class="block is-available is-filtered minimum" d="M6855.11,1915.26C6910.28,1695.87,6965.46,1476.47,6965.46,1476.47C6838.47,1442.24,6707.48,1413.45,6576.0,1389.25C6576.0,1389.25,6506.85,1830.46,6506.85,1830.46L6506.85,1830.46C6622.38,1854.44,6739.31,1882.45,6855.11,1915.26Z"></path><path data-component="svg__section" data-section-id="s_16" data-section-name="227A" class="block is-available is-filtered minimum" d="M7855.87,3832.35C7855.91,3835.63,7856.02,3838.86,7856.05,3842.15C7856.05,3842.15,7858.7,3971.9,7834.35,4173.63C7834.35,4173.63,8245.83,4226.03,8245.83,4226.03C8259.6,4086.26,8265.7,3955.3,8266.36,3833.89L8266.36,3833.89C8266.36,3833.89,8061.12,3833.12,7855.87,3832.35Z"></path><path data-component="svg__section" data-section-id="s_15" data-section-name="224A" class="block is-available is-filtered minimum" d="M7831.18,3487.09C8040.11,3465.4,8249.03,3443.71,8249.03,3443.71C8232.2,3269.31,8205.85,3129.31,8182.19,3028.55C8182.19,3028.55,7761.2,3129.38,7761.2,3129.38L7761.2,3129.38C7790.44,3241.35,7814.57,3360.78,7831.18,3487.09Z"></path><path data-component="svg__section" data-section-id="s_18" data-section-name="225A" class="block is-available is-filtered minimum" d="M7855.84,3832.34C8061.08,3833.11,8266.33,3833.88,8266.33,3833.88C8267.1,3689.8,8260.18,3559.19,8249.05,3443.7C8249.05,3443.7,7831.2,3487.09,7831.2,3487.09L7831.2,3487.09C7845.66,3597.06,7854.39,3712.27,7855.84,3832.34Z"></path><path data-component="svg__section" data-section-id="s_17" data-section-name="216" class="block is-available is-filtered minimum" d="M6101.14,1760.38C6128.54,1543.28,6155.94,1326.17,6155.94,1326.17C6017.77,1309.67,5883.46,1297.43,5757.38,1288.4C5757.38,1288.4,5727.65,1717.82,5727.65,1717.82L5727.65,1717.82C5842.43,1728.01,5968.42,1741.77,6101.14,1760.38Z"></path><path data-component="svg__section" data-section-id="s_92" data-section-name="103" class="block is-available is-filtered minimum" d="M3656.31,3330.25C3097.84,3155.87,2539.37,2981.5,2539.37,2981.5C2490.06,3166.26,2460.01,3339.43,2441.7,3479.53C2441.7,3479.53,3617.15,3600.34,3617.15,3600.34L3617.15,3600.34C3624.52,3520.38,3636.63,3421.94,3656.31,3330.25Z"></path><path data-component="svg__section" data-section-id="s_91" data-section-name="139" class="block is-available is-filtered minimum" d="M5356.46,5078.63L5356.46,5078.63C5353.5,5036.67,5350.54,4994.7,5350.54,4994.7C5218.95,5003.55,5058.71,5009.01,4891.78,5002.36C4891.78,5002.36,4889.39,5040.5,4887.0,5078.64L4887.0,5078.64L4917.99,5091.51C4915.08,5362.23,4912.17,5632.95,4912.17,5632.95C5044.88,5639.0,5191.92,5641.78,5342.4,5637.55C5342.4,5637.55,5336.04,5364.53,5329.68,5091.51L5329.68,5091.51L5356.46,5078.63Z"></path><path data-component="svg__section" data-section-id="s_94" data-section-name="143" class="block is-available is-filtered middle" d="M3898.13,4680.8C3763.79,5089.52,3629.45,5498.23,3629.45,5498.23C3749.23,5539.81,3888.12,5579.68,4040.3,5608.68C4040.3,5608.68,4197.5,4782.32,4197.5,4782.32L4197.5,4782.32C4092.64,4755.49,3984.27,4721.63,3898.13,4680.8Z"></path><path data-component="svg__section" data-section-id="s_93" data-section-name="149" class="block is-available is-filtered minimum" d="M3607.35,3916.1C3016.55,3955.75,2425.75,3995.41,2425.75,3995.41C2442.32,4174.1,2471.03,4338.94,2507.24,4489.26C2507.24,4489.26,3644.07,4214.06,3644.07,4214.06L3644.07,4214.06C3626.95,4126.1,3612.6,4024.62,3607.35,3916.1Z"></path><path data-component="svg__section" data-section-id="s_90" data-section-name="148" class="block is-available is-filtered middle" d="M3644.03,4214.1C3075.62,4351.7,2507.2,4489.3,2507.2,4489.3C2542.52,4635.97,2584.8,4768.98,2629.75,4887.43C2645.77,4915.5,2661.81,4942.96,2677.75,4969.73C2677.75,4969.73,3728.88,4525.41,3728.88,4525.41L3728.88,4525.41C3721.2,4505.07,3677.39,4385.36,3644.03,4214.1Z"></path><path data-component="svg__section" data-section-id="s_12" data-section-name="211" class="block is-available is-filtered minimum" d="M4513.44,1710.65C4502.9,1497.02,4492.36,1283.4,4492.36,1283.4C4353.49,1294.45,4218.0,1310.2,4087.8,1329.04C4087.8,1329.04,4135.13,1748.48,4135.13,1748.48L4135.13,1748.48C4251.62,1733.49,4377.64,1720.58,4513.44,1710.65Z"></path><path data-component="svg__section" data-section-id="s_11" data-section-name="207C" class="block" d="M2993.51,2046.5C2993.51,2046.5,3015.08,2034.49,3059.3,2014.92C3059.3,2014.92,2926.14,1594.85,2926.14,1594.85C2810.38,1631.44,2744.96,1655.84,2744.96,1655.84C2737.55,1661.85,2730.23,1668.08,2722.95,1674.45C2722.95,1674.45,2990.26,2050.44,2990.26,2050.44L2990.26,2050.44C2991.35,2049.13,2992.41,2047.8,2993.51,2046.5Z"></path><path data-component="svg__section" data-section-id="s_99" data-section-name="314" class="block is-available is-filtered minimum" d="M5603.69,1157.46C5620.14,779.191,5636.6,400.922,5636.6,400.922C5480.68,393.947,5318.84,390.07,5151.05,390.1C5151.05,390.1,5151.05,1144.58,5151.05,1144.58L5151.05,1144.58C5151.04,1144.57,5325.73,1141.95,5603.69,1157.46Z"></path><path data-component="svg__section" data-section-id="s_14" data-section-name="223" class="block is-available is-filtered minimum" d="M7761.22,3129.33C7971.71,3078.92,8182.21,3028.5,8182.21,3028.5C8154.09,2908.8,8129.76,2844.54,8129.76,2844.54C8106.57,2775.33,8083.32,2710.06,8060.11,2648.3C8060.11,2648.3,7652.7,2795.94,7652.7,2795.94L7652.7,2795.94C7692.74,2898.13,7729.91,3009.43,7761.22,3129.33Z"></path><path data-component="svg__section" data-section-id="s_13" data-section-name="222A" class="block is-available is-filtered middle" d="M7652.66,2795.97C7856.37,2722.14,8060.08,2648.32,8060.08,2648.32C8002.82,2495.85,7945.93,2365.34,7891.39,2254.15C7891.39,2254.15,7498.65,2463.8,7498.65,2463.8L7498.65,2463.8C7550.64,2559.96,7603.78,2671.15,7652.66,2795.97Z"></path><path data-component="svg__section" data-section-id="s_96" data-section-name="142" class="block is-available is-filtered minimum" d="M4579.84,4858.41C4579.84,4858.41,4394.92,4832.86,4197.45,4782.35C4197.45,4782.35,4040.25,5608.71,4040.25,5608.71C4127.62,5625.36,4219.32,5638.46,4314.35,5646.18C4314.35,5646.18,4357.29,5585.05,4357.29,5585.05C4357.29,5585.05,4407.74,5592.2,4493.47,5601.31C4493.47,5601.31,4531.25,5286.9,4569.03,4972.48L4569.03,4972.48C4572.63,4934.46,4576.24,4896.43,4579.84,4858.41Z"></path><path data-component="svg__section" data-section-id="s_95" data-section-name="140" class="block is-available is-filtered middle" d="M4886.98,5078.64L4891.85,5002.35C4783.12,5000.41,4674.4,4998.46,4567.94,4982.0C4567.94,4982.0,4493.5,5601.27,4493.5,5601.27C4593.19,5611.87,4740.68,5625.12,4912.15,5632.94C4912.15,5632.94,4915.06,5362.23,4917.97,5091.51L4917.97,5091.51L4886.98,5078.64Z"></path><path data-component="svg__section" data-section-id="s_10" data-section-name="208" class="block is-available is-filtered minimum" d="M3409.83,1892.22C3361.42,1688.46,3313.01,1484.7,3313.01,1484.7C3154.8,1525.17,3022.86,1564.25,2926.15,1594.81C2926.15,1594.81,3059.31,2014.89,3059.31,2014.89L3059.31,2014.89C3124.84,1985.91,3240.24,1940.28,3409.83,1892.22Z"></path><path data-component="svg__section" data-section-id="s_98" data-section-name="312" class="block is-available is-filtered minimum" d="M4673.29,1154.95C4659.66,779.727,4646.03,404.5,4646.03,404.5C4508.92,412.354,4348.47,424.354,4170.45,442.6C4170.45,442.6,4241.69,1186.35,4241.69,1186.35L4241.69,1186.35C4378.94,1172.95,4523.01,1162.21,4673.29,1154.95Z"></path><path data-component="svg__section" data-section-id="s_97" data-section-name="316" class="block is-available is-filtered minimum" d="M6504.68,1250.89C6550.74,869.833,6596.8,488.776,6596.8,488.776C6443.75,467.303,6280.99,448.258,6109.11,432.75C6109.11,432.75,6058.4,1193.71,6058.4,1193.71L6058.4,1193.71C6198.04,1208.14,6348.2,1226.82,6504.68,1250.89Z"></path><path data-component="svg__section" data-section-id="s_1" data-section-name="210" class="block is-available is-filtered minimum" d="M4135.13,1748.53C4111.46,1538.82,4087.8,1329.1,4087.8,1329.1C3952.48,1348.67,3822.91,1371.58,3701.3,1396.05C3701.3,1396.05,3772.62,1806.62,3772.62,1806.62L3772.62,1806.62C3881.28,1785.48,4001.99,1765.66,4135.13,1748.53Z"></path><path data-component="svg__section" data-section-id="s_3" data-section-name="215" class="block is-available is-filtered middle" d="M5727.69,1717.85C5742.56,1503.14,5757.43,1288.42,5757.43,1288.42C5610.49,1277.89,5474.75,1271.71,5357.18,1268.2C5357.18,1268.2,5345.7,1693.47,5345.7,1693.47L5345.7,1693.47C5446.77,1697.32,5577.62,1704.54,5727.69,1717.85Z"></path><path data-component="svg__section" data-section-id="s_2" data-section-name="213" class="block is-available is-filtered minimum" d="M5124.08,1689.17C5124.08,1689.17,5206.9,1688.18,5345.68,1693.48C5345.68,1693.48,5357.15,1268.21,5357.15,1268.21C5091.6,1260.29,4918.67,1265.97,4918.67,1265.97C4911.14,1265.97,4903.62,1266.06,4896.1,1266.09C4896.1,1266.09,4901.76,1691.94,4901.76,1691.94L4901.76,1691.94C4973.7,1690.15,5047.72,1689.17,5124.08,1689.17Z"></path><path data-component="svg__section" data-section-id="s_5" data-section-name="204" class="block is-available is-filtered minimum" d="M2596.64,2789.6C2394.59,2709.68,2192.53,2629.75,2192.53,2629.75C2144.57,2775.03,2119.95,2875.04,2119.95,2875.04C2119.95,2875.04,2096.66,2925.68,2069.2,3022.98C2069.2,3022.98,2507.17,3111.65,2507.17,3111.65L2507.17,3111.65C2530.64,3008.51,2559.98,2899.76,2596.64,2789.6Z"></path><path data-component="svg__section" data-section-id="s_4" data-section-name="212" class="block is-available is-filtered minimum" d="M4901.78,1691.95C4898.95,1479.02,4896.12,1266.1,4896.12,1266.1C4759.64,1266.73,4624.49,1272.95,4492.35,1283.47C4492.35,1283.47,4513.43,1710.71,4513.43,1710.71L4513.43,1710.71C4634.98,1701.83,4764.34,1695.35,4901.78,1691.95Z"></path><path data-component="svg__section" data-section-id="s_7" data-section-name="209" class="block is-available is-filtered minimum" d="M3772.61,1806.62C3736.95,1601.33,3701.29,1396.05,3701.29,1396.05C3559.92,1424.48,3429.35,1454.97,3313.0,1484.73C3313.0,1484.73,3409.82,1892.25,3409.82,1892.25L3409.82,1892.25C3511.11,1863.54,3631.8,1834.0,3772.61,1806.62Z"></path><path data-component="svg__section" data-section-id="s_6" data-section-name="205A" class="block is-available is-filtered minimum" d="M2731.18,2456.88C2533.61,2356.92,2336.04,2256.95,2336.04,2256.95C2275.85,2391.3,2227.86,2522.8,2192.55,2629.79C2192.55,2629.79,2596.66,2789.64,2596.66,2789.64L2596.66,2789.64C2633.58,2678.71,2677.92,2566.36,2731.18,2456.88Z"></path><path data-component="svg__section" data-section-id="s_9" data-section-name="207A" class="block is-available is-filtered middle" d="M2990.27,2050.4C2856.61,1862.4,2722.96,1674.4,2722.96,1674.4C2653.85,1734.81,2590.36,1811.26,2532.65,1896.24C2532.65,1896.24,2903.74,2162.97,2903.74,2162.97L2903.74,2162.97C2931.05,2124.36,2959.84,2086.74,2990.27,2050.4Z"></path><path data-component="svg__section" data-section-id="s_8" data-section-name="206A" class="block is-available is-filtered minimum" d="M2903.73,2162.98C2718.18,2029.62,2532.64,1896.25,2532.64,1896.25C2457.06,2007.55,2391.4,2133.4,2336.05,2256.95C2336.05,2256.95,2731.19,2456.88,2731.19,2456.88L2731.19,2456.88C2780.6,2355.29,2837.77,2256.22,2903.73,2162.98Z"></path><path data-component="svg__section" data-section-id="s_81" data-section-name="134" class="block is-available is-filtered minimum" d="M6058.4,4801.29C6138.39,5204.34,6218.38,5607.4,6218.38,5607.4C6329.3,5590.15,6468.25,5561.76,6613.88,5515.26C6613.88,5515.26,6378.37,4718.65,6378.37,4718.65L6378.37,4718.65C6303.84,4745.84,6200.86,4774.36,6058.4,4801.29Z"></path><path data-component="svg__section" data-section-id="s_80" data-section-name="133" class="block is-available is-filtered minimum" d="M6378.25,4718.6C6496.05,5116.93,6613.85,5515.25,6613.85,5515.25C6747.47,5472.67,6887.26,5414.39,7015.66,5336.05C7015.66,5336.05,6526.6,4644.95,6526.6,4644.95L6526.6,4644.95C6498.07,4666.33,6451.84,4691.8,6378.25,4718.6Z"></path><path data-component="svg__section" data-section-id="s_83" data-section-name="128" class="block is-available is-filtered minimum" d="M6654.25,4291.64C7209.78,4425.59,7765.31,4559.53,7765.31,4559.53C7815.14,4350.4,7837.73,4166.93,7847.88,4037.87C7847.88,4037.87,6694.77,3959.95,6694.77,3959.95L6694.77,3959.95C6688.52,4046.34,6676.59,4168.25,6654.25,4291.64Z"></path><path data-component="svg__section" data-section-id="s_82" data-section-name="135" class="block is-available is-filtered minimum" d="M5664.95,4860.87C5669.95,4893.56,5674.96,4926.24,5679.96,4958.93L5679.96,4958.93C5734.85,5280.77,5789.73,5602.61,5789.73,5602.61C5847.57,5594.63,5871.93,5587.58,5927.03,5576.14C5927.03,5576.14,5974.8,5633.46,5974.8,5633.46C5974.8,5633.46,6072.27,5630.06,6218.39,5607.36C6218.39,5607.36,6058.41,4801.25,6058.41,4801.25L6058.41,4801.25C5950.58,4821.64,5822.69,4843.61,5664.95,4860.87Z"></path><path data-component="svg__section" data-section-id="s_89" data-section-name="146" class="block is-available is-filtered minimum" d="M3728.85,4525.45C3203.3,4747.58,2677.75,4969.7,2677.75,4969.7C2793.89,5164.56,2903.21,5321.39,2954.16,5392.22C2954.16,5392.22,3176.66,5295.51,3176.66,5295.51C3176.66,5295.51,3190.92,5304.08,3217.68,5318.55C3217.68,5318.55,3772.96,4598.94,3772.96,4598.94L3772.96,4598.94C3750.43,4576.78,3733.63,4550.42,3728.85,4525.45Z"></path><path data-component="svg__section" data-section-id="s_88" data-section-name="101" class="block is-available is-filtered minimum" d="M3606.39,3764.52C3606.39,3764.52,3608.42,3695.54,3617.18,3600.36C3617.18,3600.36,2441.73,3479.55,2441.73,3479.55C2415.38,3681.19,2413.35,3814.28,2413.35,3814.28C2415.99,3876.22,2420.27,3936.49,2425.74,3995.44C2425.74,3995.44,3607.34,3916.13,3607.34,3916.13L3607.34,3916.13C3604.95,3866.84,3604.43,3816.1,3606.39,3764.52Z"></path><path data-component="svg__section" data-section-id="s_85" data-section-name="129" class="block is-available is-filtered minimum" d="M6654.21,4291.6C6635.46,4395.2,6608.68,4504.45,6572.45,4589.91C6572.45,4589.91,7611.32,5036.16,7611.32,5036.16C7680.18,4871.21,7729.67,4708.82,7765.27,4559.49L7765.27,4559.49C7765.27,4559.49,7209.74,4425.55,6654.21,4291.6Z"></path><path data-component="svg__section" data-section-id="s_84" data-section-name="124" class="block is-available is-filtered minimum" d="M6691.43,3648.79C7264.58,3594.55,7837.72,3540.32,7837.72,3540.32C7818.07,3366.29,7784.01,3204.78,7741.46,3057.25C7741.46,3057.25,6647.15,3388.27,6647.15,3388.27L6647.15,3388.27C6665.07,3464.28,6681.46,3552.5,6691.43,3648.79Z"></path><path data-component="svg__section" data-section-id="s_87" data-section-name="137" class="block is-available is-filtered minimum" d="M5350.64,4994.84L5356.44,5078.47L5329.65,5091.34C5336.01,5364.36,5342.37,5637.37,5342.37,5637.37C5480.67,5633.48,5654.25,5621.13,5789.7,5602.45C5789.7,5602.45,5680.09,4956.41,5680.09,4956.41L5680.09,4956.41C5680.1,4956.41,5515.37,4975.62,5350.64,4994.84Z"></path><path data-component="svg__section" data-section-id="s_86" data-section-name="126" class="block is-available is-filtered minimum" d="M6701.34,3837.52C6701.34,3837.52,6700.15,3885.58,6694.77,3959.9C6694.77,3959.9,7847.88,4037.82,7847.88,4037.82C7857.5,3915.58,7856.0,3842.12,7856.0,3842.12C7855.08,3737.76,7848.57,3637.11,7837.63,3540.3C7837.63,3540.3,6691.35,3648.77,6691.35,3648.77L6691.35,3648.77C6697.57,3708.93,6701.34,3772.16,6701.34,3837.52Z"></path><path data-component="svg__section" data-section-id="s_38" data-section-name="249A" class="block is-available is-filtered minimum" d="M2443.38,4150.0C2229.64,4176.59,2015.9,4203.19,2015.9,4203.19C2033.54,4331.03,2058.87,4467.24,2093.78,4611.41C2093.78,4611.41,2511.15,4505.7,2511.15,4505.7L2511.15,4505.7C2483.93,4395.03,2460.69,4276.38,2443.38,4150.0Z"></path><path data-component="svg__section" data-section-id="s_37" data-section-name="231A" class="block is-available is-filtered minimum" d="M7375.4,5478.68C7556.89,5609.77,7738.39,5740.85,7738.39,5740.85C7812.97,5629.05,7877.97,5507.01,7932.94,5388.92C7932.94,5388.92,7547.54,5177.75,7547.54,5177.75L7547.54,5177.75C7498.4,5279.05,7441.43,5380.13,7375.4,5478.68Z"></path><path data-component="svg__section" data-section-id="s_39" data-section-name="203A" class="block is-available is-filtered minimum" d="M2507.17,3111.67C2288.18,3067.34,2069.2,3023.0,2069.2,3023.0C2043.3,3114.78,2013.73,3248.16,1996.45,3419.88C1996.45,3419.88,2444.84,3455.83,2444.84,3455.83L2444.84,3455.83C2458.69,3354.46,2478.59,3237.24,2507.17,3111.67Z"></path><path data-component="svg__section" data-section-id="s_34" data-section-name="228A" class="block is-available is-filtered minimum" d="M7774.85,4518.5C7980.96,4575.03,8187.08,4631.56,8187.08,4631.56C8214.13,4489.5,8233.17,4354.08,8245.79,4226.0C8245.79,4226.0,7834.31,4173.6,7834.31,4173.6L7834.31,4173.6C7822.29,4273.31,7803.66,4390.54,7774.85,4518.5Z"></path><path data-component="svg__section" data-section-id="s_33" data-section-name="230A" class="block is-available is-filtered minimum" d="M7547.55,5177.74C7740.25,5283.32,7932.95,5388.9,7932.95,5388.9C7997.07,5251.22,8047.58,5118.95,8083.9,5014.6C8083.9,5014.6,7679.58,4856.25,7679.58,4856.25L7679.58,4856.25C7643.46,4961.66,7599.92,5069.79,7547.55,5177.74Z"></path><path data-component="svg__section" data-section-id="s_36" data-section-name="232A" class="block is-available is-filtered minimum" d="M7268.8,5624.99C7417.92,5790.73,7567.03,5956.48,7567.03,5956.48C7628.81,5892.96,7685.95,5819.4,7738.37,5740.81C7738.37,5740.81,7375.38,5478.65,7375.38,5478.65L7375.38,5478.65C7342.21,5528.19,7306.72,5577.05,7268.8,5624.99Z"></path><path data-component="svg__section" data-section-id="s_35" data-section-name="232C" class="block is-available is-filtered minimum" d="M7251.99,5646.18C7251.99,5646.18,7242.62,5649.87,7224.6,5656.39C7224.6,5656.39,7370.91,6078.87,7370.91,6078.87C7499.57,6019.23,7547.76,5975.86,7547.76,5975.86C7554.23,5969.51,7560.65,5963.05,7567.03,5956.49C7567.03,5956.49,7268.8,5625.0,7268.8,5625.0L7268.8,5625.0C7263.21,5632.07,7257.68,5639.16,7251.99,5646.18Z"></path><path data-component="svg__section" data-section-id="s_30" data-section-name="237" class="block is-available is-filtered minimum" d="M5366.5,5970.17C5367.51,6192.92,5368.53,6415.66,5368.53,6415.66C5508.4,6411.7,5639.84,6405.55,5763.32,6397.6C5763.32,6397.6,5740.25,5949.7,5740.25,5949.7L5740.25,5949.7C5621.28,5959.28,5496.53,5966.37,5366.5,5970.17Z"></path><path data-component="svg__section" data-section-id="s_32" data-section-name="239" class="block is-available is-filtered minimum" d="M5124.09,5973.35C5124.09,5973.35,5043.84,5971.96,4912.49,5965.05C4912.49,5965.05,4904.75,6415.99,4904.75,6415.99C5048.87,6421.29,5134.45,6420.19,5134.45,6420.19C5215.06,6419.39,5292.91,6417.84,5368.53,6415.7C5368.53,6415.7,5366.5,5970.22,5366.5,5970.22L5366.5,5970.22C5287.6,5972.51,5206.8,5973.64,5124.09,5973.35Z"></path><path data-component="svg__section" data-section-id="s_31" data-section-name="240" class="block is-available is-filtered minimum" d="M4520.69,5936.35C4508.59,6163.37,4496.5,6390.38,4496.5,6390.38C4657.77,6404.55,4797.49,6412.07,4904.75,6416.0C4904.75,6416.0,4912.49,5965.07,4912.49,5965.07L4912.49,5965.07C4808.94,5959.63,4673.6,5950.73,4520.69,5936.35Z"></path><path data-component="svg__section" data-section-id="s_27" data-section-name="233" class="block is-available is-filtered minimum" d="M6869.7,5763.7C6920.78,5991.12,6971.85,6218.55,6971.85,6218.55C7151.68,6170.18,7281.01,6120.57,7370.93,6078.88C7370.93,6078.88,7224.62,5656.4,7224.62,5656.4L7224.62,5656.4C7173.5,5674.9,7051.77,5716.49,6869.7,5763.7Z"></path><path data-component="svg__section" data-section-id="s_26" data-section-name="236" class="block is-available is-filtered minimum" d="M5740.25,5949.75C5751.79,6173.7,5763.32,6397.65,5763.32,6397.65C5906.95,6388.39,6039.85,6376.69,6162.6,6363.12C6162.6,6363.12,6119.3,5909.05,6119.3,5909.05L6119.3,5909.05C6000.67,5925.02,5874.13,5938.97,5740.25,5949.75Z"></path><path data-component="svg__section" data-section-id="s_100" data-section-name="304" class="block is-available is-filtered minimum" d="M1720.17,2690.77C1720.17,2690.77,1763.88,2542.01,1850.33,2336.37C1850.33,2336.37,1327.01,2118.25,1327.01,2118.25C1262.79,2268.42,1202.28,2430.08,1149.4,2601.88C1149.4,2601.88,1696.32,2764.91,1696.32,2764.91L1696.32,2764.91C1703.94,2740.33,1711.85,2715.62,1720.17,2690.77Z"></path><path data-component="svg__section" data-section-id="s_29" data-section-name="235" class="block is-available is-filtered minimum" d="M6119.3,5909.03C6140.95,6136.07,6162.6,6363.11,6162.6,6363.11C6311.1,6346.69,6444.9,6327.56,6565.16,6306.75C6565.16,6306.75,6497.36,5847.35,6497.36,5847.35L6497.36,5847.35C6382.63,5869.47,6256.27,5890.59,6119.3,5909.03Z"></path><path data-component="svg__section" data-section-id="s_101" data-section-name="315" class="block is-available is-filtered minimum" d="M6058.43,1193.68C6083.79,813.203,6109.14,432.725,6109.14,432.725C5958.59,419.136,5801.0,408.294,5636.67,400.95C5636.67,400.95,5603.75,1157.49,5603.75,1157.49L5603.75,1157.49C5734.84,1164.8,5888.89,1176.14,6058.43,1193.68Z"></path><path data-component="svg__section" data-section-id="s_28" data-section-name="234" class="block is-available is-filtered minimum" d="M6497.35,5847.34C6531.25,6077.04,6565.15,6306.75,6565.15,6306.75C6723.01,6279.43,6857.61,6249.23,6971.86,6218.5C6971.86,6218.5,6869.71,5763.65,6869.71,5763.65L6869.71,5763.65C6764.91,5790.83,6640.14,5819.83,6497.35,5847.34Z"></path><path data-component="svg__section" data-section-id="s_102" data-section-name="311" class="block is-available is-filtered minimum" d="M4241.72,1186.35C4206.1,814.474,4170.48,442.6,4170.48,442.6C4017.27,458.298,3851.05,478.622,3675.5,504.921C3675.5,504.921,3801.46,1240.81,3801.46,1240.81L3801.46,1240.81C3939.02,1220.15,4085.98,1201.56,4241.72,1186.35Z"></path><path data-component="svg__section" data-section-id="s_103" data-section-name="307" class="block is-available is-filtered minimum" d="M2339.4,1641.96C2339.4,1641.96,2414.76,1590.72,2511.68,1555.49C2511.68,1555.49,2533.07,1546.9,2574.25,1532.26C2574.25,1532.26,2362.16,797.3,2362.16,797.3C2265.01,827.037,2167.69,858.922,2070.58,893.135C2070.58,893.135,1968.45,1006.74,1826.0,1213.03C1826.0,1213.03,2050.88,1401.89,2275.76,1590.74L2275.76,1590.74C2296.97,1607.81,2318.18,1624.89,2339.4,1641.96Z"></path><path data-component="svg__section" data-section-id="s_104" data-section-name="310" class="block is-available is-filtered minimum" d="M3801.45,1240.84C3738.47,872.897,3675.49,504.95,3675.49,504.95C3520.72,528.132,3358.72,555.96,3192.0,589.364C3192.0,589.364,3346.77,1322.31,3346.77,1322.31L3346.77,1322.31C3483.69,1293.64,3635.69,1265.75,3801.45,1240.84Z"></path><path data-component="svg__section" data-section-id="s_105" data-section-name="305" class="block is-available is-filtered minimum" d="M2050.64,1927.05C1802.64,1789.7,1554.64,1652.35,1554.64,1652.35C1477.89,1791.5,1400.11,1947.43,1327.05,2118.27C1327.05,2118.27,1850.36,2336.39,1850.36,2336.39L1850.36,2336.39C1901.96,2213.69,1968.78,2070.75,2050.64,1927.05Z"></path><path data-component="svg__section" data-section-id="s_106" data-section-name="306" class="block is-available is-filtered minimum" d="M2275.73,1590.75C2050.85,1401.9,1825.98,1213.05,1825.98,1213.05C1744.81,1330.6,1650.56,1478.35,1554.6,1652.33C1554.6,1652.33,2050.6,1927.02,2050.6,1927.02L2050.6,1927.02C2116.07,1812.08,2191.12,1696.66,2275.73,1590.75Z"></path><path data-component="svg__section" data-section-id="s_107" data-section-name="308" class="block is-available is-filtered minimum" d="M2892.09,1432.72C2803.38,1065.46,2714.67,698.2,2714.67,698.2C2597.97,728.227,2480.2,761.181,2362.15,797.312C2362.15,797.312,2574.24,1532.27,2574.24,1532.27L2574.24,1532.27C2636.47,1510.15,2744.02,1474.13,2892.09,1432.72Z"></path><path data-component="svg__section" data-section-id="s_108" data-section-name="309" class="block is-available is-filtered minimum" d="M3346.74,1322.25C3269.35,955.773,3191.96,589.3,3191.96,589.3C3036.28,620.486,2876.49,656.537,2714.65,698.175C2714.65,698.175,2892.06,1432.68,2892.06,1432.68L2892.06,1432.68C3016.15,1397.98,3168.76,1359.5,3346.74,1322.25Z"></path><path data-component="svg__section" data-section-id="s_109" data-section-name="313" class="block is-available is-filtered minimum" d="M5151.07,1144.63C5151.07,767.394,5151.07,390.154,5151.07,390.154C5151.07,390.154,4959.6,386.507,4646.0,404.492C4646.0,404.492,4673.27,1154.95,4673.27,1154.95L4673.27,1154.95C4826.28,1147.55,4985.66,1143.76,5151.07,1144.63Z"></path><path data-component="svg__section" data-section-id="s_23" data-section-name="220A" class="block is-available is-filtered minimum" d="M7309.84,2161.62C7499.05,2031.86,7688.26,1902.1,7688.26,1902.1C7617.29,1799.54,7558.9,1735.72,7520.9,1699.2C7520.9,1699.2,7219.55,2045.85,7219.55,2045.85L7219.55,2045.85C7235.56,2064.51,7267.9,2103.62,7309.84,2161.62Z"></path><path data-component="svg__section" data-section-id="s_22" data-section-name="221A" class="block is-available is-filtered minimum" d="M7498.67,2463.85C7695.04,2359.03,7891.41,2254.2,7891.41,2254.2C7817.81,2104.2,7748.5,1989.24,7688.23,1902.15C7688.23,1902.15,7309.8,2161.67,7309.8,2161.67L7309.8,2161.67C7362.09,2233.96,7429.33,2335.61,7498.67,2463.85Z"></path><path data-component="svg__section" data-section-id="s_25" data-section-name="229" class="block is-available is-filtered minimum" d="M7679.55,4856.28C7881.71,4935.45,8083.87,5014.62,8083.87,5014.62C8129.03,4884.8,8152.24,4798.17,8152.24,4798.17C8165.09,4741.7,8176.65,4686.17,8187.04,4631.61C8187.04,4631.61,7774.82,4518.55,7774.82,4518.55L7774.82,4518.55C7750.82,4625.08,7719.75,4738.98,7679.55,4856.28Z"></path><path data-component="svg__section" data-section-id="s_24" data-section-name="220C" class="block is-available is-filtered middle" d="M7208.39,2033.15C7208.39,2033.15,7212.31,2037.42,7219.51,2045.82C7219.51,2045.82,7520.85,1699.17,7520.85,1699.17C7490.25,1669.76,7472.85,1657.98,7472.85,1657.98C7429.65,1637.5,7385.02,1618.08,7339.19,1599.65C7339.19,1599.65,7178.15,2021.55,7178.15,2021.55L7178.15,2021.55C7188.25,2025.39,7198.35,2029.21,7208.39,2033.15Z"></path><path data-component="svg__section" data-section-id="s_21" data-section-name="217" class="block is-available is-filtered minimum" d="M6506.83,1830.45C6541.41,1609.84,6575.99,1389.24,6575.99,1389.24C6435.07,1363.3,6293.62,1342.64,6155.95,1326.2C6155.95,1326.2,6101.15,1760.41,6101.15,1760.41L6101.15,1760.41C6231.42,1778.69,6368.12,1801.65,6506.83,1830.45Z"></path><path data-component="svg__section" data-section-id="s_20" data-section-name="219" class="block is-available is-filtered minimum" d="M7178.13,2021.58C7258.65,1810.63,7339.16,1599.68,7339.16,1599.68C7221.3,1552.29,7095.46,1511.51,6965.4,1476.45C6965.4,1476.45,6855.05,1915.24,6855.05,1915.24L6855.05,1915.24C6964.5,1946.23,7072.88,1981.53,7178.13,2021.58Z"></path><path data-component="svg__section" data-section-id="s_110" data-section-name="325" class="block is-available is-filtered minimum" d="M8732.57,3641.62C9039.63,3633.55,9346.7,3625.47,9346.7,3625.47C9337.33,3480.14,9318.41,3300.78,9281.91,3097.9C9281.91,3097.9,8682.45,3219.82,8682.45,3219.82L8682.45,3219.82C8704.68,3352.9,8721.95,3493.5,8732.57,3641.62Z"></path><path data-component="svg__section" data-section-id="s_59" data-section-name="202B" class="block is-available is-filtered minimum" d="M2022.98,3226.92C1810.35,3196.69,1597.71,3166.45,1597.71,3166.45C1567.32,3331.01,1551.4,3480.72,1543.6,3606.75C1543.6,3606.75,1983.15,3624.25,1983.15,3624.25L1983.15,3624.25C1987.91,3468.68,2003.7,3335.72,2022.98,3226.92Z"></path><path data-component="svg__section" data-section-id="s_111" data-section-name="324" class="block is-available is-filtered minimum" d="M8682.45,3219.83C8982.18,3158.86,9281.91,3097.9,9281.91,3097.9C9254.26,2944.31,9216.56,2777.28,9165.29,2601.35C9165.29,2601.35,8586.65,2785.03,8586.65,2785.03L8586.65,2785.03C8623.75,2919.4,8656.49,3064.44,8682.45,3219.83Z"></path><path data-component="svg__section" data-section-id="s_112" data-section-name="323" class="block is-available is-filtered minimum" d="M8586.62,2785.05C8875.94,2693.21,9165.27,2601.37,9165.27,2601.37C9118.55,2441.11,9060.57,2273.49,8988.73,2101.95C8988.73,2101.95,8438.1,2345.71,8438.1,2345.71L8438.1,2345.71C8490.91,2476.39,8541.88,2622.96,8586.62,2785.05Z"></path><path data-component="svg__section" data-section-id="s_113" data-section-name="326" class="block is-available is-filtered minimum" d="M8744.64,4001.75C9047.92,4009.63,9351.19,4017.52,9351.19,4017.52C9352.44,3999.65,9361.47,3855.11,9346.68,3625.5C9346.68,3625.5,8732.55,3641.66,8732.55,3641.66L8732.55,3641.66C8740.84,3757.2,8745.14,3877.22,8744.64,4001.75Z"></path><path data-component="svg__section" data-section-id="s_114" data-section-name="327" class="block is-available is-filtered minimum" d="M8744.67,4003.86C8744.67,4003.86,8733.94,4182.06,8686.35,4446.62C8686.35,4446.62,9298.64,4556.82,9298.64,4556.82C9329.15,4382.36,9347.98,4202.67,9351.08,4019.48C9351.08,4019.48,9351.12,4018.78,9351.21,4017.53C9351.21,4017.53,8744.67,4001.75,8744.67,4001.75L8744.67,4001.75C8744.66,4002.45,8744.67,4003.15,8744.67,4003.86Z"></path><path data-component="svg__section" data-section-id="s_115" data-section-name="317" class="block is-available is-filtered minimum" d="M6953.84,1333.02C7018.94,951.628,7084.03,570.236,7084.03,570.236C6934.75,541.109,6772.1,513.391,6596.81,488.8C6596.81,488.8,6504.7,1250.91,6504.7,1250.91L6504.7,1250.91C6650.08,1273.29,6800.89,1300.33,6953.84,1333.02Z"></path><path data-component="svg__section" data-section-id="s_116" data-section-name="319" class="block is-available is-filtered minimum" d="M7723.43,1549.18C7829.48,1167.19,7935.53,785.207,7935.53,785.207C7836.37,753.442,7713.51,717.101,7568.43,679.6C7568.43,679.6,7392.75,1442.45,7392.75,1442.45L7392.75,1442.45C7503.96,1474.47,7614.61,1509.92,7723.43,1549.18Z"></path><path data-component="svg__section" data-section-id="s_117" data-section-name="318" class="block is-available is-filtered minimum" d="M7392.82,1442.46C7480.66,1061.03,7568.5,679.604,7568.5,679.604C7427.61,643.183,7265.75,605.692,7084.09,570.25C7084.09,570.25,6953.9,1333.03,6953.9,1333.03L6953.9,1333.03C7099.26,1364.13,7246.52,1400.33,7392.82,1442.46Z"></path><path data-component="svg__section" data-section-id="s_118" data-section-name="322" class="block is-available is-filtered minimum" d="M8438.11,2345.7C8713.42,2223.82,8988.74,2101.94,8988.74,2101.94C8924.13,1947.66,8848.29,1790.23,8759.3,1632.15C8759.3,1632.15,8247.45,1944.2,8247.45,1944.2L8247.45,1944.2C8308.51,2054.47,8374.6,2188.57,8438.11,2345.7Z"></path><path data-component="svg__section" data-section-id="s_119" data-section-name="321" class="block is-available is-filtered minimum" d="M8247.42,1944.16C8503.34,1788.14,8759.26,1632.12,8759.26,1632.12C8674.63,1481.79,8578.1,1330.87,8468.04,1181.55C8468.04,1181.55,8000.2,1570.49,8000.2,1570.49L8000.2,1570.49C8000.2,1570.5,8111.18,1698.1,8247.42,1944.16Z"></path><path data-component="svg__section" data-section-id="s_50" data-section-name="245A" class="block is-available is-filtered minimum" d="M2914.2,5450.2C2738.43,5578.67,2562.65,5707.15,2562.65,5707.15C2626.37,5797.54,2685.66,5870.15,2732.25,5923.28C2732.25,5923.28,3000.38,5569.48,3000.38,5569.48L3000.38,5569.48C2986.06,5551.71,2955.0,5511.65,2914.2,5450.2Z"></path><path data-component="svg__section" data-section-id="s_56" data-section-name="250B" class="block is-available is-filtered minimum" d="M1995.77,4026.8C1772.19,4046.47,1548.6,4066.15,1548.6,4066.15C1561.56,4222.98,1581.07,4362.82,1601.71,4480.62C1601.71,4480.62,2051.14,4415.66,2051.14,4415.66L2051.14,4415.66C2024.47,4277.59,2006.65,4147.83,1995.77,4026.8Z"></path><path data-component="svg__section" data-section-id="s_55" data-section-name="227B" class="block is-available is-filtered minimum" d="M8224.05,4407.67C8453.15,4438.31,8682.26,4468.95,8682.26,4468.95C8719.56,4266.65,8735.67,4111.75,8741.62,4042.98C8741.62,4042.98,8261.01,4021.75,8261.01,4021.75L8261.01,4021.75C8254.87,4142.77,8243.11,4271.63,8224.05,4407.67Z"></path><path data-component="svg__section" data-section-id="s_58" data-section-name="201" class="block is-available is-filtered minimum" d="M1983.09,3624.26C1763.31,3615.5,1543.54,3606.75,1543.54,3606.75C1528.36,3851.77,1543.95,4007.14,1543.95,4007.14C1545.35,4027.08,1546.89,4046.68,1548.5,4066.1C1548.5,4066.1,1995.67,4026.75,1995.67,4026.75L1995.67,4026.75C1982.42,3879.43,1979.41,3745.04,1983.09,3624.26Z"></path><path data-component="svg__section" data-section-id="s_57" data-section-name="249B" class="block is-available is-filtered minimum" d="M2051.18,4415.6C1826.46,4448.08,1601.75,4480.56,1601.75,4480.56C1646.3,4734.77,1696.02,4886.67,1696.02,4886.67C1697.67,4893.84,1699.38,4900.92,1701.07,4908.02C1701.07,4908.02,2137.45,4777.8,2137.45,4777.8L2137.45,4777.8C2101.72,4651.42,2073.41,4530.66,2051.18,4415.6Z"></path><path data-component="svg__section" data-section-id="s_52" data-section-name="224B" class="block is-available is-filtered minimum" d="M8219.01,3213.55C8444.45,3180.89,8669.89,3148.22,8669.89,3148.22C8641.67,2994.92,8606.91,2852.24,8568.2,2720.35C8568.2,2720.35,8129.75,2844.55,8129.75,2844.55L8129.75,2844.55C8129.76,2844.55,8179.54,2976.0,8219.01,3213.55Z"></path><path data-component="svg__section" data-section-id="s_51" data-section-name="228B" class="block is-available is-filtered middle" d="M8224.08,4407.65C8206.66,4532.03,8183.21,4662.32,8152.3,4798.13C8152.3,4798.13,8579.03,4914.62,8579.03,4914.62C8624.53,4753.11,8657.94,4600.96,8682.29,4468.93L8682.29,4468.93C8682.29,4468.93,8453.18,4438.29,8224.08,4407.65Z"></path><path data-component="svg__section" data-section-id="s_54" data-section-name="226" class="block is-available is-filtered minimum" d="M8261.01,4021.74C8501.31,4032.36,8741.62,4042.97,8741.62,4042.97C8743.82,4017.66,8744.66,4003.85,8744.66,4003.85C8745.31,3853.43,8738.97,3709.55,8727.04,3572.25C8727.04,3572.25,8260.75,3600.75,8260.75,3600.75L8260.75,3600.75C8267.58,3727.49,8268.8,3868.29,8261.01,4021.74Z"></path><path data-component="svg__section" data-section-id="s_53" data-section-name="225B" class="block is-available is-filtered minimum" d="M8260.75,3600.71C8493.89,3586.46,8727.03,3572.21,8727.03,3572.21C8714.07,3422.98,8694.46,3281.61,8669.89,3148.2C8669.89,3148.2,8219.0,3213.54,8219.0,3213.54L8219.0,3213.54C8236.93,3321.46,8252.71,3451.29,8260.75,3600.71Z"></path><path data-component="svg__section" data-section-id="s_120" data-section-name="320" class="block is-available is-filtered minimum" d="M7929.93,1629.34C7953.37,1609.73,7976.81,1590.12,8000.26,1570.52L8000.26,1570.52C8234.18,1376.05,8468.1,1181.58,8468.1,1181.58C8396.61,1084.58,8319.45,988.231,8236.09,893.166C8236.09,893.166,8132.3,848.211,7935.55,785.2C7935.55,785.2,7723.45,1549.17,7723.45,1549.17L7723.45,1549.17C7793.13,1574.3,7862.07,1600.98,7929.93,1629.34Z"></path><path data-component="svg__section" data-section-id="s_49" data-section-name="246A" class="block is-available is-filtered minimum" d="M2756.91,5177.4C2557.13,5271.87,2357.35,5366.33,2357.35,5366.33C2424.25,5498.15,2495.88,5612.44,2562.68,5707.19C2562.68,5707.19,2914.23,5450.24,2914.23,5450.24L2914.23,5450.24C2870.14,5383.85,2814.74,5292.51,2756.91,5177.4Z"></path><path data-component="svg__section" data-section-id="s_121" data-section-name="334" class="block is-available is-filtered minimum" d="M6962.15,6379.79C7033.49,6744.92,7104.84,7110.05,7104.84,7110.05C7260.04,7079.11,7419.51,7043.51,7581.28,7002.54C7581.28,7002.54,7395.05,6275.85,7395.05,6275.85L7395.05,6275.85C7276.84,6310.96,7134.17,6346.27,6962.15,6379.79Z"></path><path data-component="svg__section" data-section-id="s_48" data-section-name="245C" class="block" d="M3009.18,5580.06C3009.18,5580.06,3006.07,5576.45,3000.43,5569.45C3000.43,5569.45,2732.3,5923.25,2732.3,5923.25C2792.35,5991.73,2831.28,6027.83,2831.28,6027.83C2851.48,6036.0,2871.83,6043.94,2892.25,6051.77C2892.25,6051.77,3063.99,5608.58,3063.99,5608.58L3063.99,5608.58C3045.23,5599.3,3026.88,5589.82,3009.18,5580.06Z"></path><path data-component="svg__section" data-section-id="s_122" data-section-name="336" class="block is-available is-filtered minimum" d="M6059.25,6503.98C6086.19,6881.62,6113.12,7259.27,6113.12,7259.27C6269.53,7242.99,6439.71,7221.95,6619.83,7194.77C6619.83,7194.77,6511.67,6452.95,6511.67,6452.95L6511.67,6452.95C6374.21,6471.43,6223.77,6488.59,6059.25,6503.98Z"></path><path data-component="svg__section" data-section-id="s_123" data-section-name="335" class="block is-available is-filtered minimum" d="M6511.7,6452.95C6565.78,6823.86,6619.85,7194.77,6619.85,7194.77C6774.96,7171.37,6937.43,7143.43,7104.87,7110.06C7104.87,7110.06,6962.18,6379.8,6962.18,6379.8L6962.18,6379.8C6830.07,6405.54,6680.66,6430.23,6511.7,6452.95Z"></path><path data-component="svg__section" data-section-id="s_124" data-section-name="340" class="block is-available is-filtered minimum" d="M4234.04,6519.25C4203.85,6896.54,4173.65,7273.82,4173.65,7273.82C4332.55,7290.14,4496.84,7302.45,4665.07,7309.5C4665.07,7309.5,4685.63,6553.69,4685.63,6553.69L4685.63,6553.69C4554.35,6547.18,4400.83,6536.53,4234.04,6519.25Z"></path><path data-component="svg__section" data-section-id="s_125" data-section-name="337" class="block is-available is-filtered minimum" d="M5604.4,6539.3C5614.17,6919.3,5623.95,7299.3,5623.95,7299.3C5763.78,7291.06,5928.93,7278.47,6113.13,7259.29C6113.13,7259.29,6059.26,6504.0,6059.26,6504.0L6059.26,6504.0C5918.27,6517.19,5766.9,6529.06,5604.4,6539.3Z"></path><path data-component="svg__section" data-section-id="s_126" data-section-name="338" class="block is-available is-filtered minimum" d="M5134.4,6562.94C5134.4,6938.76,5134.4,7314.57,5134.4,7314.57C5134.4,7314.57,5319.03,7317.26,5623.9,7299.3C5623.9,7299.3,5604.35,6539.3,5604.35,6539.3L5604.35,6539.3C5456.99,6548.59,5300.59,6556.57,5134.4,6562.94Z"></path><path data-component="svg__section" data-section-id="s_127" data-section-name="339" class="block is-available is-filtered minimum" d="M4685.66,6553.65C4675.38,6931.55,4665.1,7309.46,4665.1,7309.46C4818.62,7315.91,4975.41,7317.99,5134.45,7314.56C5134.45,7314.56,5134.45,6562.93,5134.45,6562.93L5134.45,6562.93C5134.45,6562.92,4957.94,6567.18,4685.66,6553.65Z"></path><path data-component="svg__section" data-section-id="s_128" data-section-name="333" class="block is-available is-filtered minimum" d="M7395.05,6275.86C7488.17,6639.2,7581.28,7002.55,7581.28,7002.55C7699.75,6972.55,7819.48,6939.68,7939.69,6903.67C7939.69,6903.67,7746.57,6142.6,7746.57,6142.6L7746.57,6142.6C7664.56,6183.57,7551.09,6229.52,7395.05,6275.86Z"></path><path data-component="svg__section" data-section-id="s_129" data-section-name="332" class="block is-available is-filtered minimum" d="M7952.28,5993.35C7952.28,5993.35,7917.79,6057.11,7746.6,6142.61C7746.6,6142.61,7939.71,6903.68,7939.71,6903.68C8038.31,6874.12,8137.23,6842.47,8236.08,6808.53C8236.08,6808.53,8342.95,6683.22,8490.52,6464.68L8490.52,6464.68C8490.52,6464.68,7976.68,6014.82,7952.28,5993.35Z"></path><path data-component="svg__section" data-section-id="s_45" data-section-name="244" class="block is-available is-filtered minimum" d="M3063.94,5608.6C2978.07,5830.2,2892.2,6051.79,2892.2,6051.79C3018.76,6100.37,3149.1,6142.56,3280.29,6179.19C3280.29,6179.19,3400.82,5738.02,3400.82,5738.02L3400.82,5738.02C3278.31,5700.98,3163.96,5658.13,3063.94,5608.6Z"></path><path data-component="svg__section" data-section-id="s_44" data-section-name="248" class="block is-available is-filtered minimum" d="M2511.17,4505.7C2302.48,4558.55,2093.8,4611.41,2093.8,4611.41C2106.96,4665.74,2121.48,4721.22,2137.48,4777.82C2137.48,4777.82,2157.79,4836.73,2157.79,4836.73C2170.78,4888.3,2185.28,4938.41,2200.93,4987.12C2200.93,4987.12,2613.69,4844.03,2613.69,4844.03L2613.69,4844.03C2576.4,4741.32,2541.35,4628.41,2511.17,4505.7Z"></path><path data-component="svg__section" data-section-id="s_47" data-section-name="242" class="block is-available is-filtered minimum" d="M3759.99,5827.3C3718.72,6050.67,3677.45,6274.04,3677.45,6274.04C3813.89,6301.65,3947.85,6324.04,4075.97,6342.22C4075.97,6342.22,4126.82,5890.14,4126.82,5890.14L4126.82,5890.14C4005.92,5872.94,3882.03,5852.24,3759.99,5827.3Z"></path><path data-component="svg__section" data-section-id="s_46" data-section-name="243" class="block is-available is-filtered minimum" d="M3400.84,5738.05C3340.57,5958.64,3280.3,6179.23,3280.3,6179.23C3412.87,6216.24,3546.25,6247.58,3677.43,6274.11C3677.43,6274.11,3759.96,5827.37,3759.96,5827.37L3759.96,5827.37C3636.59,5802.16,3515.21,5772.62,3400.84,5738.05Z"></path><path data-component="svg__section" data-section-id="s_41" data-section-name="247A" class="block is-available is-filtered minimum" d="M2613.66,4844.05C2407.28,4915.6,2200.9,4987.15,2200.9,4987.15C2245.43,5125.73,2299.6,5252.56,2357.35,5366.3C2357.35,5366.3,2756.91,5177.37,2756.91,5177.37L2756.91,5177.37C2709.12,5082.27,2659.71,4970.89,2613.66,4844.05Z"></path><path data-component="svg__section" data-section-id="s_40" data-section-name="241" class="block is-available is-filtered minimum" d="M4126.85,5890.15C4101.42,6116.19,4076.0,6342.23,4076.0,6342.23C4226.1,6363.53,4368.12,6379.05,4496.52,6390.33C4496.52,6390.33,4520.7,5936.29,4520.7,5936.29L4520.7,5936.29C4398.25,5924.78,4264.52,5909.72,4126.85,5890.15Z"></path><path data-component="svg__section" data-section-id="s_43" data-section-name="250A" class="block is-available is-filtered minimum" d="M2413.31,3814.3C2198.21,3814.3,1983.1,3814.3,1983.1,3814.3C1986.52,3933.63,1996.56,4063.39,2015.86,4203.22C2015.86,4203.22,2443.33,4150.03,2443.33,4150.03L2443.33,4150.03C2428.74,4043.52,2418.3,3931.62,2413.31,3814.3Z"></path><path data-component="svg__section" data-section-id="s_42" data-section-name="202A" class="block is-available is-filtered minimum" d="M2444.74,3455.85C2220.54,3437.88,1996.35,3419.9,1996.35,3419.9C1984.8,3534.58,1978.77,3666.34,1983.0,3814.26C1983.0,3814.26,2413.22,3814.26,2413.22,3814.26L2413.22,3814.26C2413.22,3814.26,2415.4,3670.7,2444.74,3455.85Z"></path></g><g class="labels"><text data-component="svg__label" data-label-id="s_130" class="label" transform="" font-size="135"><tspan dy="1em" x="8945" y="4663">328</tspan></text><text data-component="svg__label" data-label-id="s_131" class="label" transform="" font-size="135"><tspan dy="1em" x="8809" y="5131">329</tspan></text><text data-component="svg__label" data-label-id="s_132" class="label" transform="" font-size="135"><tspan dy="1em" x="8625" y="5575">330</tspan></text><text data-component="svg__label" data-label-id="s_133" class="label" transform="" font-size="135"><tspan dy="1em" x="8390" y="5991">331</tspan></text><text data-component="svg__label" data-label-id="s_134" class="label" transform="" font-size="135"><tspan dy="1em" x="2632" y="6480">344</tspan></text><text data-component="svg__label" data-label-id="s_135" class="label" transform="" font-size="135"><tspan dy="1em" x="1349" y="4647">349</tspan></text><text data-component="svg__label" data-label-id="s_136" class="label" transform="" font-size="135"><tspan dy="1em" x="1672" y="5561">347</tspan></text><text data-component="svg__label" data-label-id="s_137" class="label" transform="" font-size="135"><tspan dy="1em" x="1262" y="4163">350</tspan></text><text data-component="svg__label" data-label-id="s_138" class="label" transform="" font-size="135"><tspan dy="1em" x="1484" y="5116">348</tspan></text><text data-component="svg__label" data-label-id="s_139" class="label" transform="" font-size="135"><tspan dy="1em" x="1266" y="3314">302</tspan></text><text data-component="svg__label" data-label-id="s_70" class="label" transform="rotate(-87,5351,2412) " font-size="135"><tspan dy="1em" x="5351" y="2412">114</tspan></text><text data-component="svg__label" data-label-id="s_72" class="label" transform="" font-size="135"><tspan dy="1em" x="7138" y="2962">123</tspan></text><text data-component="svg__label" data-label-id="s_71" class="label" transform="rotate(-69,6530,2569) " font-size="135"><tspan dy="1em" x="6530" y="2569">118</tspan></text><text data-component="svg__label" data-label-id="s_78" class="label" transform="" font-size="135"><tspan dy="1em" x="3611" y="4957">144</tspan></text><text data-component="svg__label" data-label-id="s_77" class="label" transform="rotate(-82,5731,2421) " font-size="135"><tspan dy="1em" x="5731" y="2421">115A</tspan></text><text data-component="svg__label" data-label-id="s_79" class="label" transform="" font-size="135"><tspan dy="1em" x="7014" y="4888">131</tspan></text><text data-component="svg__label" data-label-id="s_74" class="label" transform="" font-size="135"><tspan dy="1em" x="6983" y="2586">121</tspan></text><text data-component="svg__label" data-label-id="s_73" class="label" transform="rotate(-78,6226,2503) " font-size="135"><tspan dy="1em" x="6226" y="2503">117</tspan></text><text data-component="svg__label" data-label-id="s_76" class="label" transform="rotate(-84,5560,2383) " font-size="135"><tspan dy="1em" x="5560" y="2383">115C</tspan></text><text data-component="svg__label" data-label-id="s_75" class="label" transform="rotate(-81,5937,2458) " font-size="135"><tspan dy="1em" x="5937" y="2458">116</tspan></text><text data-component="svg__label" data-label-id="s_140" class="label" transform="" font-size="135"><tspan dy="1em" x="1243" y="3740">301</tspan></text><text data-component="svg__label" data-label-id="s_141" class="label" transform="" font-size="135"><tspan dy="1em" x="3962" y="6791">341</tspan></text><text data-component="svg__label" data-label-id="s_142" class="label" transform="" font-size="135"><tspan dy="1em" x="1920" y="5987">346</tspan></text><text data-component="svg__label" data-label-id="s_143" class="label" transform="" font-size="135"><tspan dy="1em" x="3033" y="6604">343</tspan></text><text data-component="svg__label" data-label-id="s_144" class="label" transform="" font-size="135"><tspan dy="1em" x="3490" y="6712">342</tspan></text><text data-component="svg__label" data-label-id="s_145" class="label" transform="" font-size="135"><tspan dy="1em" x="1352" y="2832">303</tspan></text><text data-component="svg__label" data-label-id="s_146" class="label" transform="" font-size="135"><tspan dy="1em" x="2237" y="6364">345</tspan></text><text data-component="svg__label" data-label-id="s_61" class="label" transform="" font-size="135"><tspan dy="1em" x="3135" y="2888">104</tspan></text><text data-component="svg__label" data-label-id="s_60" class="label" transform="" font-size="135"><tspan dy="1em" x="1848" y="2918">203B</tspan></text><text data-component="svg__label" data-label-id="s_67" class="label" transform="rotate(77,4057,2483) " font-size="135"><tspan dy="1em" x="4057" y="2483">109</tspan></text><text data-component="svg__label" data-label-id="s_66" class="label" transform="" font-size="135"><tspan dy="1em" x="5142" y="2328">113</tspan></text><text data-component="svg__label" data-label-id="s_69" class="label" transform="rotate(82,4543,2413) " font-size="135"><tspan dy="1em" x="4543" y="2413">111A</tspan></text><text data-component="svg__label" data-label-id="s_68" class="label" transform="rotate(79,4331,2437) " font-size="135"><tspan dy="1em" x="4331" y="2437">110</tspan></text><text data-component="svg__label" data-label-id="s_63" class="label" transform="rotate(87,4928,2415) " font-size="135"><tspan dy="1em" x="4928" y="2415">112</tspan></text><text data-component="svg__label" data-label-id="s_62" class="label" transform="rotate(87,4719,2366) " font-size="135"><tspan dy="1em" x="4719" y="2366">111C</tspan></text><text data-component="svg__label" data-label-id="s_65" class="label" transform="rotate(69,3768,2555) " font-size="135"><tspan dy="1em" x="3768" y="2555">108</tspan></text><text data-component="svg__label" data-label-id="s_64" class="label" transform="" font-size="135"><tspan dy="1em" x="3333" y="2547">106</tspan></text><text data-component="svg__label" data-label-id="s_19" class="label" transform="" font-size="135"><tspan dy="1em" x="6726" y="1562">218</tspan></text><text data-component="svg__label" data-label-id="s_16" class="label" transform="" font-size="135"><tspan dy="1em" x="8057" y="3933">227A</tspan></text><text data-component="svg__label" data-label-id="s_15" class="label" transform="" font-size="135"><tspan dy="1em" x="8013" y="3185">224A</tspan></text><text data-component="svg__label" data-label-id="s_18" class="label" transform="" font-size="135"><tspan dy="1em" x="8057" y="3564">225A</tspan></text><text data-component="svg__label" data-label-id="s_17" class="label" transform="" font-size="135"><tspan dy="1em" x="5935" y="1435">216</tspan></text><text data-component="svg__label" data-label-id="s_92" class="label" transform="" font-size="135"><tspan dy="1em" x="3031" y="3259">103</tspan></text><text data-component="svg__label" data-label-id="s_91" class="label" transform="" font-size="135"><tspan dy="1em" x="5124" y="5234">139</tspan></text><text data-component="svg__label" data-label-id="s_94" class="label" transform="" font-size="135"><tspan dy="1em" x="3941" y="5061">143</tspan></text><text data-component="svg__label" data-label-id="s_93" class="label" transform="" font-size="135"><tspan dy="1em" x="3004" y="4075">149</tspan></text><text data-component="svg__label" data-label-id="s_90" class="label" transform="" font-size="135"><tspan dy="1em" x="3116" y="4476">148</tspan></text><text data-component="svg__label" data-label-id="s_12" class="label" transform="" font-size="135"><tspan dy="1em" x="4306" y="1429">211</tspan></text><text data-component="svg__label" data-label-id="s_11" class="label" transform="rotate(65,2974,1784) " font-size="108"><tspan dy="1em" x="2974" y="1784">207C</tspan></text><text data-component="svg__label" data-label-id="s_99" class="label" transform="" font-size="135"><tspan dy="1em" x="5384" y="683">314</tspan></text><text data-component="svg__label" data-label-id="s_14" class="label" transform="" font-size="135"><tspan dy="1em" x="7921" y="2814">223</tspan></text><text data-component="svg__label" data-label-id="s_13" class="label" transform="" font-size="135"><tspan dy="1em" x="7782" y="2452">222A</tspan></text><text data-component="svg__label" data-label-id="s_96" class="label" transform="" font-size="135"><tspan dy="1em" x="4326" y="5129">142</tspan></text><text data-component="svg__label" data-label-id="s_95" class="label" transform="" font-size="135"><tspan dy="1em" x="4719" y="5233">140</tspan></text><text data-component="svg__label" data-label-id="s_10" class="label" transform="" font-size="135"><tspan dy="1em" x="3172" y="1657">208</tspan></text><text data-component="svg__label" data-label-id="s_98" class="label" transform="" font-size="135"><tspan dy="1em" x="4431" y="705">312</tspan></text><text data-component="svg__label" data-label-id="s_97" class="label" transform="" font-size="135"><tspan dy="1em" x="6317" y="750">316</tspan></text><text data-component="svg__label" data-label-id="s_1" class="label" transform="" font-size="135"><tspan dy="1em" x="3922" y="1482">210</tspan></text><text data-component="svg__label" data-label-id="s_3" class="label" transform="" font-size="135"><tspan dy="1em" x="5546" y="1405">215</tspan></text><text data-component="svg__label" data-label-id="s_2" class="label" transform="" font-size="135"><tspan dy="1em" x="5124" y="1392">213</tspan></text><text data-component="svg__label" data-label-id="s_5" class="label" transform="" font-size="135"><tspan dy="1em" x="2331" y="2803">204</tspan></text><text data-component="svg__label" data-label-id="s_4" class="label" transform="" font-size="135"><tspan dy="1em" x="4699" y="1400">212</tspan></text><text data-component="svg__label" data-label-id="s_7" class="label" transform="" font-size="135"><tspan dy="1em" x="3547" y="1556">209</tspan></text><text data-component="svg__label" data-label-id="s_6" class="label" transform="" font-size="135"><tspan dy="1em" x="2456" y="2446">205A</tspan></text><text data-component="svg__label" data-label-id="s_9" class="label" transform="rotate(42,2826,1893) " font-size="108"><tspan dy="1em" x="2826" y="1893">207A</tspan></text><text data-component="svg__label" data-label-id="s_8" class="label" transform="" font-size="135"><tspan dy="1em" x="2614" y="2102">206A</tspan></text><text data-component="svg__label" data-label-id="s_81" class="label" transform="" font-size="135"><tspan dy="1em" x="6314" y="5090">134</tspan></text><text data-component="svg__label" data-label-id="s_80" class="label" transform="" font-size="135"><tspan dy="1em" x="6649" y="5002">133</tspan></text><text data-component="svg__label" data-label-id="s_83" class="label" transform="" font-size="135"><tspan dy="1em" x="7244" y="4128">128</tspan></text><text data-component="svg__label" data-label-id="s_82" class="label" transform="" font-size="135"><tspan dy="1em" x="5937" y="5141">135</tspan></text><text data-component="svg__label" data-label-id="s_89" class="label" transform="" font-size="135"><tspan dy="1em" x="3267" y="4844">146</tspan></text><text data-component="svg__label" data-label-id="s_88" class="label" transform="" font-size="135"><tspan dy="1em" x="2986" y="3670">101</tspan></text><text data-component="svg__label" data-label-id="s_85" class="label" transform="" font-size="135"><tspan dy="1em" x="7169" y="4536">129</tspan></text><text data-component="svg__label" data-label-id="s_84" class="label" transform="" font-size="135"><tspan dy="1em" x="7243" y="3332">124</tspan></text><text data-component="svg__label" data-label-id="s_87" class="label" transform="" font-size="135"><tspan dy="1em" x="5537" y="5233">137</tspan></text><text data-component="svg__label" data-label-id="s_86" class="label" transform="" font-size="135"><tspan dy="1em" x="7272" y="3718">126</tspan></text><text data-component="svg__label" data-label-id="s_38" class="label" transform="" font-size="135"><tspan dy="1em" x="2256" y="4285">249A</tspan></text><text data-component="svg__label" data-label-id="s_37" class="label" transform="" font-size="135"><tspan dy="1em" x="7655" y="5368">231A</tspan></text><text data-component="svg__label" data-label-id="s_39" class="label" transform="" font-size="135"><tspan dy="1em" x="2243" y="3167">203A</tspan></text><text data-component="svg__label" data-label-id="s_34" class="label" transform="" font-size="135"><tspan dy="1em" x="8017" y="4306">228A</tspan></text><text data-component="svg__label" data-label-id="s_33" class="label" transform="" font-size="135"><tspan dy="1em" x="7817" y="5029">230A</tspan></text><text data-component="svg__label" data-label-id="s_36" class="label" transform="rotate(39,7531,5653) " font-size="108"><tspan dy="1em" x="7531" y="5653">232A</tspan></text><text data-component="svg__label" data-label-id="s_35" class="label" transform="rotate(60,7438,5834) " font-size="108"><tspan dy="1em" x="7438" y="5834">232C</tspan></text><text data-component="svg__label" data-label-id="s_30" class="label" transform="" font-size="135"><tspan dy="1em" x="5558" y="6102">237</tspan></text><text data-component="svg__label" data-label-id="s_32" class="label" transform="" font-size="135"><tspan dy="1em" x="5136" y="6111">239</tspan></text><text data-component="svg__label" data-label-id="s_31" class="label" transform="" font-size="135"><tspan dy="1em" x="4707" y="6096">240</tspan></text><text data-component="svg__label" data-label-id="s_27" class="label" transform="" font-size="135"><tspan dy="1em" x="7109" y="5854">233</tspan></text><text data-component="svg__label" data-label-id="s_26" class="label" transform="" font-size="135"><tspan dy="1em" x="5946" y="6074">236</tspan></text><text data-component="svg__label" data-label-id="s_100" class="label" transform="" font-size="135"><tspan dy="1em" x="1495" y="2368">304</tspan></text><text data-component="svg__label" data-label-id="s_29" class="label" transform="" font-size="135"><tspan dy="1em" x="6336" y="6026">235</tspan></text><text data-component="svg__label" data-label-id="s_101" class="label" transform="" font-size="135"><tspan dy="1em" x="5851" y="708">315</tspan></text><text data-component="svg__label" data-label-id="s_28" class="label" transform="" font-size="135"><tspan dy="1em" x="6726" y="5956">234</tspan></text><text data-component="svg__label" data-label-id="s_102" class="label" transform="" font-size="135"><tspan dy="1em" x="3970" y="750">311</tspan></text><text data-component="svg__label" data-label-id="s_103" class="label" transform="" font-size="135"><tspan dy="1em" x="2232" y="1136">307</tspan></text><text data-component="svg__label" data-label-id="s_104" class="label" transform="" font-size="135"><tspan dy="1em" x="3501" y="824">310</tspan></text><text data-component="svg__label" data-label-id="s_105" class="label" transform="" font-size="135"><tspan dy="1em" x="1685" y="1920">305</tspan></text><text data-component="svg__label" data-label-id="s_106" class="label" transform="" font-size="135"><tspan dy="1em" x="1912" y="1501">306</tspan></text><text data-component="svg__label" data-label-id="s_107" class="label" transform="" font-size="135"><tspan dy="1em" x="2632" y="1024">308</tspan></text><text data-component="svg__label" data-label-id="s_108" class="label" transform="" font-size="135"><tspan dy="1em" x="3033" y="921">309</tspan></text><text data-component="svg__label" data-label-id="s_109" class="label" transform="" font-size="135"><tspan dy="1em" x="4904" y="683">313</tspan></text><text data-component="svg__label" data-label-id="s_23" class="label" transform="rotate(-39,7394,1900) " font-size="108"><tspan dy="1em" x="7394" y="1900">220A</tspan></text><text data-component="svg__label" data-label-id="s_22" class="label" transform="" font-size="135"><tspan dy="1em" x="7603" y="2106">221A</tspan></text><text data-component="svg__label" data-label-id="s_25" class="label" transform="" font-size="135"><tspan dy="1em" x="7938" y="4674">229</tspan></text><text data-component="svg__label" data-label-id="s_24" class="label" transform="rotate(-59,7286,1748) " font-size="108"><tspan dy="1em" x="7286" y="1748">220C</tspan></text><text data-component="svg__label" data-label-id="s_21" class="label" transform="" font-size="135"><tspan dy="1em" x="6335" y="1489">217</tspan></text><text data-component="svg__label" data-label-id="s_20" class="label" transform="" font-size="135"><tspan dy="1em" x="7086" y="1661">219</tspan></text><text data-component="svg__label" data-label-id="s_110" class="label" transform="" font-size="135"><tspan dy="1em" x="9025" y="3310">325</tspan></text><text data-component="svg__label" data-label-id="s_59" class="label" transform="" font-size="135"><tspan dy="1em" x="1777" y="3322">202B</tspan></text><text data-component="svg__label" data-label-id="s_111" class="label" transform="" font-size="135"><tspan dy="1em" x="8938" y="2839">324</tspan></text><text data-component="svg__label" data-label-id="s_112" class="label" transform="" font-size="135"><tspan dy="1em" x="8804" y="2371">323</tspan></text><text data-component="svg__label" data-label-id="s_113" class="label" transform="" font-size="135"><tspan dy="1em" x="9050" y="3737">326</tspan></text><text data-component="svg__label" data-label-id="s_114" class="label" transform="" font-size="135"><tspan dy="1em" x="9034" y="4174">327</tspan></text><text data-component="svg__label" data-label-id="s_115" class="label" transform="" font-size="135"><tspan dy="1em" x="6785" y="819">317</tspan></text><text data-component="svg__label" data-label-id="s_116" class="label" transform="" font-size="135"><tspan dy="1em" x="7656" y="1022">319</tspan></text><text data-component="svg__label" data-label-id="s_117" class="label" transform="" font-size="135"><tspan dy="1em" x="7251" y="914">318</tspan></text><text data-component="svg__label" data-label-id="s_118" class="label" transform="" font-size="135"><tspan dy="1em" x="8618" y="1916">322</tspan></text><text data-component="svg__label" data-label-id="s_119" class="label" transform="" font-size="135"><tspan dy="1em" x="8379" y="1489">321</tspan></text><text data-component="svg__label" data-label-id="s_50" class="label" transform="rotate(-42,2748,5615) " font-size="108"><tspan dy="1em" x="2748" y="5615">245A</tspan></text><text data-component="svg__label" data-label-id="s_56" class="label" transform="" font-size="135"><tspan dy="1em" x="1792" y="4164">250B</tspan></text><text data-component="svg__label" data-label-id="s_55" class="label" transform="" font-size="135"><tspan dy="1em" x="8483" y="4150">227B</tspan></text><text data-component="svg__label" data-label-id="s_58" class="label" transform="" font-size="135"><tspan dy="1em" x="1756" y="3748">201</tspan></text><text data-component="svg__label" data-label-id="s_57" class="label" transform="" font-size="135"><tspan dy="1em" x="1862" y="4563">249B</tspan></text><text data-component="svg__label" data-label-id="s_52" class="label" transform="" font-size="135"><tspan dy="1em" x="8405" y="2895">224B</tspan></text><text data-component="svg__label" data-label-id="s_51" class="label" transform="" font-size="135"><tspan dy="1em" x="8417" y="4563">228B</tspan></text><text data-component="svg__label" data-label-id="s_54" class="label" transform="" font-size="135"><tspan dy="1em" x="8505" y="3726">226</tspan></text><text data-component="svg__label" data-label-id="s_53" class="label" transform="" font-size="135"><tspan dy="1em" x="8475" y="3300">225B</tspan></text><text data-component="svg__label" data-label-id="s_120" class="label" transform="" font-size="135"><tspan dy="1em" x="8057" y="1122">320</tspan></text><text data-component="svg__label" data-label-id="s_49" class="label" transform="" font-size="135"><tspan dy="1em" x="2635" y="5347">246A</tspan></text><text data-component="svg__label" data-label-id="s_121" class="label" transform="" font-size="135"><tspan dy="1em" x="7261" y="6616">334</tspan></text><text data-component="svg__label" data-label-id="s_48" class="label" transform="rotate(-61,2845,5781) " font-size="108"><tspan dy="1em" x="2845" y="5781">245C</tspan></text><text data-component="svg__label" data-label-id="s_122" class="label" transform="" font-size="135"><tspan dy="1em" x="6325" y="6777">336</tspan></text><text data-component="svg__label" data-label-id="s_123" class="label" transform="" font-size="135"><tspan dy="1em" x="6799" y="6707">335</tspan></text><text data-component="svg__label" data-label-id="s_124" class="label" transform="" font-size="135"><tspan dy="1em" x="4438" y="6837">340</tspan></text><text data-component="svg__label" data-label-id="s_125" class="label" transform="" font-size="135"><tspan dy="1em" x="5849" y="6822">337</tspan></text><text data-component="svg__label" data-label-id="s_126" class="label" transform="" font-size="135"><tspan dy="1em" x="5373" y="6849">338</tspan></text><text data-component="svg__label" data-label-id="s_127" class="label" transform="" font-size="135"><tspan dy="1em" x="4903" y="6856">339</tspan></text><text data-component="svg__label" data-label-id="s_128" class="label" transform="" font-size="135"><tspan dy="1em" x="7666" y="6499">333</tspan></text><text data-component="svg__label" data-label-id="s_129" class="label" transform="" font-size="135"><tspan dy="1em" x="8078" y="6375">332</tspan></text><text data-component="svg__label" data-label-id="s_45" class="label" transform="" font-size="135"><tspan dy="1em" x="3154" y="5818">244</tspan></text><text data-component="svg__label" data-label-id="s_44" class="label" transform="" font-size="135"><tspan dy="1em" x="2348" y="4655">248</tspan></text><text data-component="svg__label" data-label-id="s_47" class="label" transform="" font-size="135"><tspan dy="1em" x="3908" y="6004">242</tspan></text><text data-component="svg__label" data-label-id="s_46" class="label" transform="" font-size="135"><tspan dy="1em" x="3526" y="5927">243</tspan></text><text data-component="svg__label" data-label-id="s_41" class="label" transform="" font-size="135"><tspan dy="1em" x="2473" y="5013">247A</tspan></text><text data-component="svg__label" data-label-id="s_40" class="label" transform="" font-size="135"><tspan dy="1em" x="4303" y="6060">241</tspan></text><text data-component="svg__label" data-label-id="s_43" class="label" transform="" font-size="135"><tspan dy="1em" x="2204" y="3912">250A</tspan></text><text data-component="svg__label" data-label-id="s_42" class="label" transform="" font-size="135"><tspan dy="1em" x="2201" y="3540">202A</tspan></text></g></svg>